<svg id="Layer_1" data-name="Layer 1" xmlns="http://www.w3.org/2000/svg" viewBox="0 0 240 66.589"><defs><style>.cls-1{fill:#231f20;}.cls-2{fill:#006351;}.cls-3{fill:#fff;}</style></defs><title>logo_web</title><path class="cls-1" d="M56.317,36.626a15.6,15.6,0,0,0,.406-2.471c0-.27-.18-1.62-.18-1.934,0-.132.089-.985.089-1.167s-.135-1.122-.135-1.346c0-.451.046-1.172.046-1.619,0-.223.089-1.4.089-1.658a3.386,3.386,0,0,0-.045-.676,9.45,9.45,0,0,1-.133-1.8c0-.228.043-.5.043-.72.09-1.036.226-2.295.226-3.056,0-.269-.136-1.619-.136-1.928,0-.137.089-.944.089-1.127,0-.224-.133-1.436-.133-1.7,0-.137.044-.9.044-1.079a17.9,17.9,0,0,0-.359-2.606,4.725,4.725,0,0,1-.18-1.167,4.582,4.582,0,0,1,.406-2.338A1.861,1.861,0,0,1,58.428,7.2a11.907,11.907,0,0,1,1.3.046c.36.045.674.088.988.131a4.013,4.013,0,0,0,.719.046c.225,0,1.3-.089,1.528-.089s1.166.089,1.393.089c.359,0,2.2-.223,2.6-.223a6.51,6.51,0,0,1,.945.046c.223.045.493.088.718.131a5.926,5.926,0,0,1,2.065.407,5.115,5.115,0,0,1,1.123.583c.227.137.405.223.631.361.178.135.4.268.583.4a8.712,8.712,0,0,0,.808.538,8.7,8.7,0,0,1,1.843,1.706c.225.315.358.629.539.9.268.36.628.675.853,1.035a6.727,6.727,0,0,1,.942,3.279v.721a5.516,5.516,0,0,0,.092.807c0,.09.045,1.35.045,1.482v.223a9.424,9.424,0,0,1-.36,1.436,10.355,10.355,0,0,1-.36,1.711c-.089.314-.764,1.614-.9,1.887a4.649,4.649,0,0,1-1.259,1.929,7.136,7.136,0,0,1-.628.5,15.251,15.251,0,0,1-1.617,1.345,5.141,5.141,0,0,1-1.842.944c-.18.046-.764.223-.764.675,0,.269.179.4.72.808a3.987,3.987,0,0,1,.449.36,4.478,4.478,0,0,0,.584.675,14.6,14.6,0,0,0,1.8,1.213,7.459,7.459,0,0,0,2.786.355,1.513,1.513,0,0,1,1.527,1.487c0,.178-.225,1.168-.225,1.39,0,.138.046.808.046.99a2.415,2.415,0,0,1-.315,1.3,2.317,2.317,0,0,1-1.753.767c-.223,0-.449-.046-.628-.046h-.538c-.09,0-.54-.046-.629-.046h-.631a4.109,4.109,0,0,1-.673-.178c-.27-.091-.539-.091-.808-.182a13.491,13.491,0,0,1-1.439-.715c-.269-.137-1.57-1.3-2.2-1.843-.314-.268-1.931-1.573-2.244-1.933a8.959,8.959,0,0,0-.584-.716,3.11,3.11,0,0,1-.495-.538,6.912,6.912,0,0,0-.54-.635,1.814,1.814,0,0,0-1.437-.715c-.764,0-.9.99-.9,1.842a7.792,7.792,0,0,0,.134,1.345c.091.452.27.944.36,1.442,0,.223.045.4.045.624,0,.72-.09,1.664-1.213,1.756H60.585c-.134,0-.9-.046-1.031-.046-.585,0-1.126.092-1.709.092-1.528,0-1.528-1.127-1.528-1.711ZM72.446,18.34a4.083,4.083,0,0,1-.27-.67c-.045-.183-.045-.314-.09-.5-.044-.131-.09-.223-.135-.36a4.775,4.775,0,0,0-1.842-2.469c-.854-.672-.854-.718-1.526-.9a1.606,1.606,0,0,1-.406-.183c-.088-.044-.225-.132-.314-.177A3.525,3.525,0,0,1,67.19,13c-.136,0-.226-.09-.36-.136s-.315-.044-.45-.087c-.089,0-.494-.137-.628-.137-.046,0-.495.092-.584.092-.136,0-.269-.046-.449-.046a7.311,7.311,0,0,0-1.169.358c-1.123.449-1.123,1.8-1.123,2.743,0,.223-.088,1.3-.088,1.574,0,.4.179,2.38.179,2.826,0,.5-.225,2.7-.225,3.188a9.277,9.277,0,0,0,.134,1.035c.046.274.046.538.091.812a1.2,1.2,0,0,0,.224.4,3.492,3.492,0,0,0,1.977.675,6.417,6.417,0,0,0,.987-.092,2.253,2.253,0,0,0,1.167-.268,17.654,17.654,0,0,1,2.023-.767A1.987,1.987,0,0,0,70.2,24a5.764,5.764,0,0,1,.674-.949A8.184,8.184,0,0,0,72,21.258a10.457,10.457,0,0,0,.494-2.466A1.739,1.739,0,0,0,72.446,18.34Z" transform="translate(-5 -6.705)"/><path class="cls-1" d="M99.748,39.721c-.359.047-.674,0-1.033.047-.089,0-.629.045-.764.045s-.808-.045-.988-.045c-.315,0-.673.045-.988.045-.225,0-1.168-.138-1.394-.178a7.479,7.479,0,0,1-1.572-.274A11.4,11.4,0,0,1,91.8,39.1c-.092-.046-2.741-.99-3.011-1.127a18.66,18.66,0,0,1-2.38-1.482c-.314-.27-1.933-2.066-2.2-2.426-.223-.269-.943-1.482-1.169-1.888a10.794,10.794,0,0,1-.762-2.2c-.091-.227-.179-.5-.27-.766a9.9,9.9,0,0,1-.269-1.259c-.091-.446-.269-.939-.359-1.436-.045-.315-.135-3.1-.135-3.415a19.252,19.252,0,0,1,1.976-8.309,11.864,11.864,0,0,1,.854-1.258c.224-.361.359-.719.584-1.033s.54-.629.763-.9a4.895,4.895,0,0,0,.449-.627,5.769,5.769,0,0,1,1.754-1.482,12.741,12.741,0,0,1,3.908-1.976,12.485,12.485,0,0,1,4.715-.81c1.663,0,2.023.046,2.291.046.765.045.81.045,1.168.045a4.035,4.035,0,0,1,1.258.226,12.487,12.487,0,0,1,1.347.269c.361.132.719.315,1.124.447a19.826,19.826,0,0,1,2.471,1.08A8.018,8.018,0,0,1,107.16,9.9c.181.18,1.213,1.032,1.394,1.258a25.251,25.251,0,0,1,2.694,3.548c.225.451.54,1.213.72,1.665.134.268.314.537.449.806.092.27.315,1.706.405,2.02a4.241,4.241,0,0,1,.134.721A10.885,10.885,0,0,1,113,21.126c0,.361.18,1.975.18,2.335,0,.182-.09,1.167-.09,1.349a9.186,9.186,0,0,0-.044,1.169,1.235,1.235,0,0,1-.046.405c-.045.269-.179.539-.225.761-.135.5-.09.944-.267,1.437a2.8,2.8,0,0,1-.317.766,15.559,15.559,0,0,1-.719,1.842c-.089.269-.271.493-.358.762-.136.177-.181.406-.316.629-.177.36-.4.766-.538.989a8.708,8.708,0,0,1-.854.985l-.4.543c-.181.178-1.033,1.031-1.167,1.121a5.826,5.826,0,0,0-.72.407,2.529,2.529,0,0,0-.405.361c-.224.177-2.874,1.7-3.279,1.882a1.584,1.584,0,0,1-.584.269c-.224.045-.4,0-.628.045a7.981,7.981,0,0,1-1.125.407,1.4,1.4,0,0,1-.538.045Zm-11.9-13.742a2.7,2.7,0,0,0,.268,1.121c.046.137.405,1.167.449,1.3a3.281,3.281,0,0,0,.854,1.659c.225.268.5.5.719.812a6.958,6.958,0,0,0,.494.715,8.469,8.469,0,0,0,1.3,1.126,7.877,7.877,0,0,0,1.26.539,12.62,12.62,0,0,0,1.167.492,5.52,5.52,0,0,0,2.157.407c.223,0,2.425-.138,2.38-.138.405-.086.72-.223,1.077-.314a6.369,6.369,0,0,0,1.528-.4c.226-.138.448-.315.674-.452.27-.223.585-.315.853-.538.314-.269.54-.675.855-.99.223-.223.449-.4.672-.629a3.627,3.627,0,0,0,.541-.629c.178-.314.763-1.614.852-1.8.09-.269.449-1.659.584-1.929a4.785,4.785,0,0,0,.226-1.528c0-.182-.046-.9-.046-1.08,0-.087.046-.629.046-.761V21.8a2.172,2.172,0,0,0-.046-.543c-.089-.492-.269-1.03-.4-1.522-.089-.361-.18-.721-.27-1.127a8.991,8.991,0,0,0-1.616-2.827c-.182-.223-.854-1.035-.944-1.17-.18-.135-.405-.225-.584-.36a4.137,4.137,0,0,0-.449-.45,1.647,1.647,0,0,0-.4-.177c-.27-.137-.45-.361-.674-.493a14.735,14.735,0,0,0-1.842-.5,10.767,10.767,0,0,0-2.066-.177,9.233,9.233,0,0,0-1.079.089H95.75a2.829,2.829,0,0,0-.854.088c-.447.092-.9.4-1.346.538-.406.137-.764.226-1.169.406a7.348,7.348,0,0,0-1.57,1.213,4.014,4.014,0,0,0-.767.945c-.133.223-.359.446-.492.67-.09.137-.945,1.847-1.034,2.116-.135.538-.18,1.03-.269,1.523a9.418,9.418,0,0,0-.27,1.08,5.417,5.417,0,0,0-.046,1.168v.452a8.016,8.016,0,0,0-.223,1.435c0,.137.135.985.135,1.167Z" transform="translate(-5 -6.705)"/><path class="cls-1" d="M125.76,6.751c.224,0,1.257.089,1.483.134h.763a8.633,8.633,0,0,1,4.178,1.393,1.656,1.656,0,0,1,.719,1.213c0,.272-.09.4-.449.944a5.032,5.032,0,0,0-.405.895,11.336,11.336,0,0,1-.407,2.117,1.225,1.225,0,0,1-.987.625,2.826,2.826,0,0,1-1.121-.315,7.555,7.555,0,0,1-.989-.67c-.134-.092-.269-.228-.449-.36a9.585,9.585,0,0,0-2.876-.855c-1.3,0-3.5.045-3.5,2.2a2.772,2.772,0,0,0,.944,1.98,27.55,27.55,0,0,0,2.607,1.927c.269.183.539.406.763.584.405.315.808.543,1.168.812a28.125,28.125,0,0,1,3.1,2.649c2.29,2.294,2.516,2.832,3.189,4.314a6.809,6.809,0,0,1,.763,3.412,16.269,16.269,0,0,1-.133,2.608,9.663,9.663,0,0,1-1.842,4.222,15.219,15.219,0,0,1-1.707,1.573,11.431,11.431,0,0,1-3.46,1.391c-.27.046-2.247.131-2.514.131-.72,0-1.44-.131-2.157-.177a19.108,19.108,0,0,1-2.111-.222c-.18-.047-1.17-.138-1.3-.138a3.871,3.871,0,0,0-.628-.223c-.314-.092-.631-.092-.9-.178-.269,0-1.393-.406-1.616-.451a1.371,1.371,0,0,1-1.079-.853c0-.091-.18-1.528-.18-1.482v-.137a10.652,10.652,0,0,1,.718-1.883c.137-.5.092-.99.225-1.487.181-.853.495-1.254,1.124-1.254a2.934,2.934,0,0,1,1.662.853,7.8,7.8,0,0,0,3.415,1.7l.944.269a7.926,7.926,0,0,0,1.8.182,4.487,4.487,0,0,0,1.932-.5,3.783,3.783,0,0,0,1.706-3.142,6.851,6.851,0,0,0-.809-2.472,5.551,5.551,0,0,0-.717-.721c-.136-.177-.225-.314-.361-.492a4.953,4.953,0,0,0-1.078-.943c-.315-.224-1.661-1.437-2.022-1.7-.269-.224-.584-.315-.852-.545-.18-.131-.99-.937-1.167-1.075a10.709,10.709,0,0,0-1.169-.761,5.839,5.839,0,0,1-.585-.5,8.122,8.122,0,0,1-.628-.63c-.225-.223-.631-.584-.9-.853A2.856,2.856,0,0,1,117,18.654a5.825,5.825,0,0,0-.54-.9c-.088-.223-.178-.492-.268-.715a11.348,11.348,0,0,1-.45-2.34c0-.089.045-.584.045-.716,0-.314-.045-.629-.045-.99v-.268c.045-.407.27-.81.358-1.214a10,10,0,0,1,.36-1.034,4.143,4.143,0,0,1,1.124-1.528,5.239,5.239,0,0,1,.495-.315,7.065,7.065,0,0,1,.629-.583c.088-.044,1.121-.63,1.212-.676a3.958,3.958,0,0,1,.585-.131,7.6,7.6,0,0,1,.942-.315c.179-.046.359,0,.585-.046a2.283,2.283,0,0,0,.537-.089h.765c.4,0,.763-.045,1.122-.045Z" transform="translate(-5 -6.705)"/><path class="cls-1" d="M149.734,7.246c.629,0,1.3.177,1.93.177.316,0,1.843-.177,2.2-.177,1.437,0,2.02.314,2.02,1.213,0,.091-.044.629-.044.763,0,.181.044,1.168.044,1.348,0,2.111-.4,2.289-1.3,2.289-.18,0-1.123.18-1.348.18-.134,0-.989-.089-1.167-.089s-.854.089-1.034.089c-.135,0-.808-.134-.942-.134a1.191,1.191,0,0,0-.9.583,2.4,2.4,0,0,0-.361,1.574c0,.177.088.943.088,1.121,0,.091-.042.583-.042.675V17.4a2.994,2.994,0,0,1-.091.5,1.511,1.511,0,0,0-.045.447c0,.137.045.721.045.852,0,.183-.089.854-.089,1.036,0,.091.044.223.089.584a4.1,4.1,0,0,1,.045.72c0,.315-.09,1.751-.09,2.066,0,.583.045,1.212.045,1.8,0,.268-.089,1.573-.089,1.842,0,.223.044,1.3.044,1.527s-.044,1.391-.044,1.66c0,.223.089,1.213.089,1.436,0,.183-.089,1.035-.089,1.259a3.112,3.112,0,0,0,.089.675c.045.492.224,2.38.224,2.878,0,1.253-.224,2.426-1.438,2.426-.178,0-1.211-.092-1.437-.092-.268,0-1.527.132-1.8.132-.855,0-1.484-.132-1.708-.67a6.064,6.064,0,0,1-.18-1.218c0-.177.134-.848.134-1.031s-.09-1.035-.09-1.212a6.885,6.885,0,0,1,.136-1.03V33.21c0-.137.089-.811.089-.989,0-.046-.045-.361-.045-.447v-1.98c0-.355.092-.715.092-1.075,0-.092-.092-.721-.092-.853v-.5c0-.131-.044-.675-.044-.76,0-.407.089-.767.089-1.127a4.608,4.608,0,0,0-.089-.715c0-.087.044-.585.044-.721,0-.087-.044-.717-.044-.854,0-.222.136-1.3.136-1.572,0-.538-.092-1.076-.092-1.614,0-.269.18-1.574.18-1.888,0-.224-.135-1.391-.135-1.665,0-.086.047-.715.047-.852s-.136-.942-.136-1.123c0-.045.044-.36.044-.405a2.4,2.4,0,0,0-.224-.852c-.269-.361-.763-.361-1.662-.361-.18,0-.854-.087-.988-.087s-.9.133-1.079.133c-.358,0-.762-.09-1.167-.09h-.718a1.293,1.293,0,0,1-1.214-1.346c0-.269.045-.584.045-.9,0-.091-.045-.5-.045-.584s.089-.541.089-.675c0-.045-.044-.36-.044-.406a3.324,3.324,0,0,1,.27-1.213c.268-.358.493-.358,1.166-.358.181,0,1.034-.088,1.212-.088a10.132,10.132,0,0,1,1.439.088c.134.043,1.213.181,1.258.181.45,0,.9-.092,1.393-.138.225-.043,1.257-.086,1.482-.086a6.583,6.583,0,0,1,.943.132h.72c.18,0,.854.046.987.046C146.635,7.469,149.2,7.246,149.734,7.246Z" transform="translate(-5 -6.705)"/><path class="cls-1" d="M174.221,39.721c-.358.047-.673,0-1.032.047-.089,0-.63.045-.765.045s-.807-.045-.987-.045c-.315,0-.674.045-.989.045-.224,0-1.167-.138-1.391-.178a7.432,7.432,0,0,1-1.573-.274,11.4,11.4,0,0,1-1.214-.263c-.091-.046-2.739-.99-3.009-1.127a18.68,18.68,0,0,1-2.382-1.482c-.315-.27-1.932-2.066-2.2-2.426-.227-.269-.942-1.482-1.168-1.888a10.451,10.451,0,0,1-.764-2.2c-.092-.227-.18-.5-.268-.766a9.719,9.719,0,0,1-.273-1.259c-.089-.446-.268-.939-.36-1.436-.043-.315-.134-3.1-.134-3.415a19.249,19.249,0,0,1,1.978-8.309,11.864,11.864,0,0,1,.854-1.258c.226-.361.358-.719.584-1.033s.54-.629.763-.9a5,5,0,0,0,.449-.627,5.8,5.8,0,0,1,1.754-1.482A12.763,12.763,0,0,1,166,7.515a12.5,12.5,0,0,1,4.717-.81c1.659,0,2.02.046,2.29.046.763.045.809.045,1.167.045a4.039,4.039,0,0,1,1.257.226,12.571,12.571,0,0,1,1.349.269c.36.132.721.315,1.124.447a19.534,19.534,0,0,1,2.468,1.08A7.863,7.863,0,0,1,181.633,9.9c.181.18,1.213,1.032,1.393,1.258a25.274,25.274,0,0,1,2.695,3.548c.225.451.541,1.213.719,1.665.136.268.315.537.451.806.087.27.312,1.706.4,2.02a4.345,4.345,0,0,1,.135.721,10.425,10.425,0,0,1,.047,1.213c0,.361.176,1.975.176,2.335,0,.182-.088,1.167-.088,1.349a8.6,8.6,0,0,0-.047,1.169,1.378,1.378,0,0,1-.041.405c-.047.269-.182.539-.227.761-.135.5-.091.944-.271,1.437a2.633,2.633,0,0,1-.312.766,15.742,15.742,0,0,1-.72,1.842c-.091.269-.267.493-.359.762-.134.177-.181.406-.314.629-.18.36-.407.766-.538.989a8.339,8.339,0,0,1-.856.985l-.4.543c-.18.178-1.036,1.031-1.167,1.121a5.764,5.764,0,0,0-.721.407,2.521,2.521,0,0,0-.4.361c-.223.177-2.876,1.7-3.279,1.882a1.584,1.584,0,0,1-.584.269c-.225.045-.407,0-.63.045a7.878,7.878,0,0,1-1.124.407,1.392,1.392,0,0,1-.537.045Zm-11.9-13.742a2.682,2.682,0,0,0,.269,1.121c.046.137.4,1.167.45,1.3a3.293,3.293,0,0,0,.852,1.659c.226.268.5.5.72.812a7.452,7.452,0,0,0,.493.715,8.35,8.35,0,0,0,1.3,1.126,7.81,7.81,0,0,0,1.257.539c.406.177.766.361,1.169.492a5.527,5.527,0,0,0,2.155.407c.225,0,2.429-.138,2.383-.138.4-.086.717-.223,1.078-.314a6.393,6.393,0,0,0,1.528-.4c.223-.138.449-.315.672-.452.268-.223.583-.315.856-.538.312-.269.538-.675.852-.99.225-.223.449-.4.672-.629a3.585,3.585,0,0,0,.541-.629c.18-.314.764-1.614.852-1.8.092-.269.45-1.659.584-1.929a4.714,4.714,0,0,0,.224-1.528c0-.182-.043-.9-.043-1.08,0-.087.043-.629.043-.761V21.8a2.319,2.319,0,0,0-.043-.543c-.09-.492-.27-1.03-.405-1.522-.091-.361-.18-.721-.268-1.127a9.045,9.045,0,0,0-1.619-2.827c-.178-.223-.852-1.035-.942-1.17-.18-.135-.4-.225-.583-.36a4.383,4.383,0,0,0-.453-.45,1.588,1.588,0,0,0-.4-.177c-.269-.137-.45-.361-.675-.493a14.594,14.594,0,0,0-1.84-.5,10.78,10.78,0,0,0-2.068-.177,9.268,9.268,0,0,0-1.079.089h-.627a2.826,2.826,0,0,0-.855.088c-.45.092-.9.4-1.347.538-.4.137-.765.226-1.167.406a7.429,7.429,0,0,0-1.574,1.213,4.23,4.23,0,0,0-.764.945c-.133.223-.357.446-.492.67-.091.137-.944,1.847-1.035,2.116-.135.538-.18,1.03-.268,1.523a9.418,9.418,0,0,0-.27,1.08,5.3,5.3,0,0,0-.047,1.168v.452a8.016,8.016,0,0,0-.223,1.435c0,.137.135.985.135,1.167Z" transform="translate(-5 -6.705)"/><path class="cls-1" d="M207.106,29.033c-.135.63-.629,3.725-.673,3.862-.09.407-.226.853-.273,1.26a10.015,10.015,0,0,0-.221,2.288,5.525,5.525,0,0,1-.227,1.258,2.17,2.17,0,0,1-2.246,1.4c-.357,0-2.153-.138-2.559-.138-.27,0-1.662.138-1.977.138-2.02,0-2.158-1.756-2.2-2.426a36.261,36.261,0,0,0-.54-3.6c-.089-.269-.4-1.751-.493-2.106-.133-.5-.314-1.035-.406-1.528-.133-.542-.223-1.081-.312-1.573-.226-.943-.585-1.843-.809-2.786-.046-.224-.091-.5-.134-.762a6.492,6.492,0,0,1-.227-.99,3.763,3.763,0,0,1-.133-.765,32.9,32.9,0,0,0-.673-3.5c-.138-.5-.318-.99-.453-1.437-.045-.228-.045-.452-.088-.675-.088-.452-.268-.852-.358-1.3-.136-.583-.225-1.168-.406-1.751-.133-.447-.268-.9-.448-1.347a17.411,17.411,0,0,1-1.167-3.911A1.459,1.459,0,0,1,191.609,7.2c.134,0,.538.046.895.046.407.045.766.088.9.088.179,0,.584-.043,1.033-.088.4-.046.852-.092.99-.092,1.121,0,1.75.99,1.929,3.01,0,.226.045.5.045.763a13.992,13.992,0,0,0,.494,1.845,8.761,8.761,0,0,1,.182,1.076c0,.181.042.361.042.584.094.5.272,1.035.36,1.528.047.269.089.492.136.72,0,.132.359,1.751.406,1.974.088.407.223.767.311,1.127.136.583.095,1.122.227,1.706a9.774,9.774,0,0,1,.268,1.076,7.3,7.3,0,0,1,.136.989c.045.361.178.676.225.989.089.269.313,1.752.36,2.067a10.379,10.379,0,0,1,.4,2.471c0,.269.135.584.269.584.092,0,.18-.224.227-.406a3.514,3.514,0,0,0,.041-.721,6.753,6.753,0,0,1,.272-1.568l.27-1.081c.043-.269.088-.584.133-.853s.181-.538.225-.853c.045-.223.045-.5.091-.766s.089-.492.134-.761c.046-.223.046-.492.089-.721a7.7,7.7,0,0,1,.135-.9,29.34,29.34,0,0,0,.628-4.223,11.755,11.755,0,0,1,.315-1.482c.138-.718.584-3.5.631-4.222.133-2.426.359-3.862,1.886-3.862.09,0,.362.045.628.045.272.043.54.086.63.086a5.116,5.116,0,0,0,.809-.043c.494-.043.944-.088,1.435-.088.541,0,1.619,0,1.619,1.344a9.04,9.04,0,0,1-.134,1.081,7.506,7.506,0,0,1-.449,1.8c-.227.537-.586,2.019-.676,2.333-.133.63-.225,1.3-.36,1.935-.133.67-.358,1.39-.491,2.065s-.718,4-.856,4.715c-.223.989-.494,2.024-.717,3.009-.091.584-.227,1.167-.27,1.711-.045.314-.045.583-.092.852Z" transform="translate(-5 -6.705)"/><path class="cls-1" d="M221.337,7.2c1.078,0,1.078,1.842,1.078,2.066,0,.5-.045.989-.045,1.481V11.2c.045.537.225,1.075.225,1.659a6.969,6.969,0,0,1-.852,2.741A3.964,3.964,0,0,1,219.99,17a6.187,6.187,0,0,1-2.293.716,1.94,1.94,0,0,1-.671-.132c-.587-.183-.587-.407-.587-.63v-.675c0-.269.046-.269.54-.492a1.832,1.832,0,0,0,1.168-1.665,1.031,1.031,0,0,0-.45-.807,2.918,2.918,0,0,1-.718-.405,1.761,1.761,0,0,1-.674-1.345c0-.23-.135-2.2-.135-2.338,0-1.213.36-1.931,1.482-1.931h.991a.043.043,0,0,0,.045.043h.358c.271,0,1.527-.134,1.842-.134Z" transform="translate(-5 -6.705)"/><path class="cls-1" d="M236.511,6.751c.223,0,1.257.089,1.483.134h.763a8.629,8.629,0,0,1,4.178,1.393,1.65,1.65,0,0,1,.718,1.213c0,.272-.088.4-.45.944a4.942,4.942,0,0,0-.4.895,11.636,11.636,0,0,1-.4,2.117,1.23,1.23,0,0,1-.987.625,2.856,2.856,0,0,1-1.127-.315,7.739,7.739,0,0,1-.987-.67c-.135-.092-.268-.228-.448-.36a9.536,9.536,0,0,0-2.876-.855c-1.3,0-3.5.045-3.5,2.2a2.772,2.772,0,0,0,.944,1.98,27.794,27.794,0,0,0,2.606,1.927c.27.183.541.406.764.584.4.315.808.543,1.168.812a28.271,28.271,0,0,1,3.1,2.649c2.293,2.294,2.52,2.832,3.191,4.314A6.778,6.778,0,0,1,245,29.75a16.031,16.031,0,0,1-.135,2.608,9.64,9.64,0,0,1-1.842,4.222,14.81,14.81,0,0,1-1.7,1.573,11.43,11.43,0,0,1-3.462,1.391c-.268.046-2.246.131-2.514.131-.718,0-1.437-.131-2.158-.177a19.274,19.274,0,0,1-2.111-.222c-.177-.047-1.166-.138-1.3-.138a3.825,3.825,0,0,0-.63-.223c-.313-.092-.626-.092-.9-.178-.27,0-1.392-.406-1.617-.451a1.372,1.372,0,0,1-1.079-.853c0-.091-.181-1.528-.181-1.482v-.137a10.673,10.673,0,0,1,.722-1.883c.132-.5.088-.99.223-1.487.18-.853.5-1.254,1.121-1.254a2.935,2.935,0,0,1,1.665.853,7.778,7.778,0,0,0,3.414,1.7l.944.269a7.934,7.934,0,0,0,1.8.182,4.479,4.479,0,0,0,1.93-.5,3.781,3.781,0,0,0,1.708-3.142,6.851,6.851,0,0,0-.809-2.472,5.687,5.687,0,0,0-.718-.721c-.135-.177-.223-.314-.361-.492a5.068,5.068,0,0,0-1.077-.943c-.317-.224-1.661-1.437-2.022-1.7-.272-.224-.583-.315-.854-.545-.179-.131-.988-.937-1.168-1.075a10.324,10.324,0,0,0-1.168-.761,6.064,6.064,0,0,1-.584-.5,8.129,8.129,0,0,1-.629-.63c-.223-.223-.629-.584-.9-.853a2.838,2.838,0,0,1-.853-1.213,6.077,6.077,0,0,0-.541-.9c-.089-.223-.18-.492-.268-.715a11.282,11.282,0,0,1-.45-2.34c0-.089.044-.584.044-.716,0-.314-.044-.629-.044-.99v-.268a11.649,11.649,0,0,1,.36-1.214,9.321,9.321,0,0,1,.358-1.034,4.132,4.132,0,0,1,1.124-1.528,5.485,5.485,0,0,1,.494-.315,7.669,7.669,0,0,1,.628-.583c.092-.044,1.124-.63,1.212-.676a3.986,3.986,0,0,1,.585-.131,7.573,7.573,0,0,1,.944-.315c.18-.046.36,0,.583-.046a2.307,2.307,0,0,0,.541-.089h.764c.4,0,.761-.045,1.121-.045Z" transform="translate(-5 -6.705)"/><path class="cls-1" d="M93.962,51.735c-.057.314-.46.4-.746.4s-.374-.259-.6-.919a5.4,5.4,0,0,0-5.145-3.476c-5.347,0-7.761,6.44-7.761,11.556,0,6.724,4.686,6.811,5.29,6.811a8.034,8.034,0,0,0,6.7-4.314c.373-.659.547-.918.806-.918s.8.259.775.492c0,0-.6,1.924-.69,2.3s-.373,2.1-.43,2.3a.538.538,0,0,1-.575.37c-.462,0-.488-.141-.576-.573a.585.585,0,0,0-.545-.518c-.143,0-.258,0-.805.406a8.794,8.794,0,0,1-5.231,1.634C80.108,67.284,76,64.469,76,58.4c0-6.954,4.915-11.729,10.95-11.729a9.1,9.1,0,0,1,3.911.831c1.005.493,1.121.549,1.35.549.432,0,.519-.344.69-.888.116-.289.173-.407.632-.407.431,0,.518.148.518.407,0,.142-.057.689-.057.8,0,.431-.03.777-.03,2.015Z" transform="translate(-5 -6.705)"/><path class="cls-1" d="M99.816,67.255c-2.961,0-4.771-2.3-4.771-5.087,0-3.618,2.99-7.415,6.611-7.415a4.893,4.893,0,0,1,4.886,5.263A7.18,7.18,0,0,1,99.816,67.255Zm1.812-11.7c-2.473,0-3.8,3.939-3.8,7.365,0,.975.03,3.446,2.069,3.446,2.243,0,3.939-3.247,3.939-7.243C103.841,58.576,103.841,55.555,101.628,55.555Z" transform="translate(-5 -6.705)"/><path class="cls-1" d="M108.033,56.307l.2-1.183h2.155l.288-1.721c.316-1.9.718-4.226,2.7-5.634a6.036,6.036,0,0,1,3.306-1.033c1.61,0,2.443.948,2.443,1.75a1.235,1.235,0,0,1-1.293,1.207,1.438,1.438,0,0,1-1.265-.745,1.864,1.864,0,0,0-1.494-.92c-1.007,0-1.207,1.265-1.351,2.127l-.862,4.969h2.127l-.2,1.183h-2.155l-1.725,10.207c-.346,2.095-.719,4.05-2.012,5.256a5.645,5.645,0,0,1-3.909,1.524c-2.071,0-2.962-1.06-2.962-1.9a1.23,1.23,0,0,1,1.236-1.176c.6,0,.777.227,1.438,1.12a2.1,2.1,0,0,0,1.466.864c1,0,1.407-1.154,1.639-2.127.2-.949.459-2.533.659-3.562l1.726-10.207Z" transform="translate(-5 -6.705)"/><path class="cls-1" d="M116.071,56.307l.2-1.183h2.154l.289-1.721c.317-1.9.719-4.226,2.7-5.634a6.031,6.031,0,0,1,3.3-1.033c1.61,0,2.444.948,2.444,1.75a1.234,1.234,0,0,1-1.293,1.207,1.436,1.436,0,0,1-1.265-.745,1.868,1.868,0,0,0-1.495-.92c-1.006,0-1.206,1.265-1.352,2.127l-.862,4.969h2.127l-.2,1.183h-2.154l-1.726,10.207c-.344,2.095-.718,4.05-2.011,5.256a5.645,5.645,0,0,1-3.909,1.524c-2.071,0-2.962-1.06-2.962-1.9a1.231,1.231,0,0,1,1.236-1.176c.6,0,.777.227,1.438,1.12a2.092,2.092,0,0,0,1.466.864c1.006,0,1.408-1.154,1.639-2.127.2-.949.458-2.533.66-3.562l1.725-10.207Z" transform="translate(-5 -6.705)"/><path class="cls-1" d="M125.782,62.8c0,.518,0,3.1,1.867,3.1,1.38,0,2.617-1.232,3.192-1.924.344-.4.372-.462.6-.462a.443.443,0,0,1,.461.4,6.246,6.246,0,0,1-5.145,3.335,3.838,3.838,0,0,1-3.882-4.168c0-3.877,3.018-8.334,7.388-8.334.459,0,2.817,0,2.817,2.3,0,3.074-3.91,4.141-7.245,4.542C125.811,61.965,125.782,62.317,125.782,62.8Zm5.289-5.64a1.414,1.414,0,0,0-1.465-1.406c-1.064,0-3.163,1.3-3.651,4.919C130.525,59.871,131.071,57.886,131.071,57.164Z" transform="translate(-5 -6.705)"/><path class="cls-1" d="M137.448,62.8c0,.518,0,3.1,1.868,3.1,1.38,0,2.615-1.232,3.192-1.924.343-.4.371-.462.6-.462a.443.443,0,0,1,.46.4,6.245,6.245,0,0,1-5.143,3.335,3.838,3.838,0,0,1-3.882-4.168c0-3.877,3.018-8.334,7.386-8.334.461,0,2.819,0,2.819,2.3,0,3.074-3.91,4.141-7.246,4.542C137.476,61.965,137.448,62.317,137.448,62.8Zm5.29-5.64a1.416,1.416,0,0,0-1.467-1.406c-1.063,0-3.162,1.3-3.651,4.919C142.192,59.871,142.738,57.886,142.738,57.164Z" transform="translate(-5 -6.705)"/><path class="cls-1" d="M158.229,51.537c0-2.275,2.068-4.862,6.438-4.862,3.248,0,3.507,1.811,3.507,2.273a1.37,1.37,0,0,1-1.408,1.381c-.95,0-1.209-.549-1.7-1.437-.314-.634-.66-1.152-1.405-1.152-1.5,0-3.02,1.694-3.02,4.309a7.8,7.8,0,0,0,.172,1.5,3.934,3.934,0,0,1,.949-.116c1.378,0,2.185.689,2.154,1.582,0,1.006-1,1.351-1.609,1.351a2.938,2.938,0,0,1-2.04-.862,4.468,4.468,0,0,0-1.467,3.678c0,4.569,4.084,6.9,7.849,6.9,4.312,0,7.646-2.841,7.646-6.089,0-.549-.144-4.4-4.745-4.4-2.845,0-3.736,1.066-3.736,1.868,0,.95.95,1.067,1.209,1.067.2,0,1.093-.143,1.294-.143a1.2,1.2,0,0,1,1.233,1.29c0,1.15-1.032,1.527-1.837,1.527-1.494,0-2.876-1.239-2.876-3.366a4.767,4.767,0,0,1,1.609-3.593,6.591,6.591,0,0,1,4.57-1.293c.69,0,3.653.116,4.256.116,1,0,2.271-.116,2.271-1.183a1.37,1.37,0,0,0-1.321-1.263c-.118,0-.721.056-.836.056a1.328,1.328,0,1,1,0-2.641,3.529,3.529,0,0,1,3.22,3.761,3.772,3.772,0,0,1-4,3.884,4.452,4.452,0,0,1-.977-.087,6.232,6.232,0,0,1,1.725,4.285c0,3.709-3.421,7.444-9.829,7.444-6.871,0-10.176-3.248-10.176-7.044,0-3.594,2.9-5.288,3.993-5.893A4.236,4.236,0,0,1,158.229,51.537Z" transform="translate(-5 -6.705)"/><path class="cls-1" d="M195.408,63.148a8.361,8.361,0,0,0-.143,1.406c0,1.036.661,1.263,1.7,1.411.747.087.836.087.836.259,0,.37-.145.857-.546.857-.2,0-.49-.054-1.036-.112-.518-.029-1.294-.085-2.5-.085-.717,0-1.694.056-2.5.085-.8.058-1.464.112-1.609.112-.113,0-.315-.025-.315-.425,0-.691.374-.721,1.151-.839.976-.111,1.435-.511,1.722-2.384l2.389-15.291H192.39c-2.817,0-3.392.431-4.515,3.074-.083.2-.2.259-.573.259-.113,0-.4,0-.4-.284a23.8,23.8,0,0,1,1.492-4.283c1.525-.03,8.6.2,9.688.2,1,0,5.375-.087,6.264-.056a9.71,9.71,0,0,1,.146,1.924,13.006,13.006,0,0,1-.172,2.587c-.059.143-.373.174-.46.174-.316,0-.431-.087-.431-.4a3.291,3.291,0,0,0-.259-1.844c-.69-1.348-2.127-1.348-3.911-1.348h-1.523Z" transform="translate(-5 -6.705)"/><path class="cls-1" d="M203.584,62.8c0,.518,0,3.1,1.866,3.1,1.382,0,2.614-1.232,3.191-1.924.345-.4.373-.462.6-.462a.442.442,0,0,1,.459.4,6.245,6.245,0,0,1-5.143,3.335,3.837,3.837,0,0,1-3.881-4.168c0-3.877,3.019-8.334,7.384-8.334.464,0,2.819,0,2.819,2.3,0,3.074-3.91,4.141-7.243,4.542C203.612,61.965,203.584,62.317,203.584,62.8Zm5.288-5.64a1.414,1.414,0,0,0-1.467-1.406c-1.062,0-3.162,1.3-3.652,4.919C208.326,59.871,208.872,57.886,208.872,57.164Z" transform="translate(-5 -6.705)"/><path class="cls-1" d="M222.391,63.92a8.934,8.934,0,0,0-.172,1.268c0,.462.316.488.431.488.749,0,1.5-1.147,1.609-1.32.2-.32.405-.608.518-.608.087,0,.462.116.462.4,0,.2-1.352,3.1-3.508,3.1a1.825,1.825,0,0,1-2.011-1.665,6.644,6.644,0,0,1-4.083,1.665,3.546,3.546,0,0,1-3.507-3.65c0-4.254,4.63-8.481,8.709-8.481.2,0,1.064.031,1.236,0,.2-.025,1.094-.371,1.3-.371a.568.568,0,0,1,.574.518,2.447,2.447,0,0,1-.088.574ZM221.1,57.485c0-.087.087-.549.087-.808a.684.684,0,0,0-.719-.745c-2.3,0-5.491,3.852-5.491,7.648a2.052,2.052,0,0,0,2.069,2.324,4.146,4.146,0,0,0,2.791-1.609Z" transform="translate(-5 -6.705)"/><path class="cls-2" d="M27.313,6.908c-1.055,0-2.026.908-3.04,1.122a15.345,15.345,0,0,0-2.973.811c-.931.4-2.241.208-3.117.778-.858.56-1.413,1.642-2.209,2.354a25.484,25.484,0,0,0-1.866,2.462,28.261,28.261,0,0,0-1.637,2.574,30.037,30.037,0,0,0-1.995,2.365c-.488.887-1.592,1.515-2.017,2.475-.41.925-.682,1.968-1.027,2.956-.332.952-.286,2.058-.555,3.059S6.53,29.9,6.329,30.935c-.193,1-.125,2.038-.254,3.072C5.95,35,5.41,35.969,5.348,37c-.059.968.5,1.955.5,2.946,0,1.063-.917,2.148-.85,3.185.068,1.056.181,2.126.316,3.149s.97,1.956,1.172,2.956c.21,1.047-.328,2.273-.051,3.273.282,1.015,1.708,1.652,2.056,2.615s.37,2.045.785,2.961c.436.958.474,2.109.974,2.988a30.139,30.139,0,0,0,1.882,2.524c.6.847,1.664,1.272,2.326,2.014.689.774.744,2.167,1.494,2.818a22.05,22.05,0,0,0,2.412,1.992,18.463,18.463,0,0,0,2.956,1.072c.955.4,2.1.1,3.1.3.969.195,1.878,1.3,2.884,1.3,1.054,0,2.09-.714,3.1-.928a15.962,15.962,0,0,0,2.94-1.042,18.434,18.434,0,0,0,2.986-1.008c.857-.558,1.408-1.606,2.2-2.318A23.967,23.967,0,0,0,40.6,65.526c.661-.763,1.735-1.246,2.329-2.113.575-.832,1.04-1.8,1.549-2.716.49-.887,1.246-1.705,1.672-2.667.409-.925-.2-2.278.143-3.264.33-.952,1.462-1.667,1.731-2.668s.306-2.068.506-3.1c.194-1,.212-2.043.342-3.077.123-1-.314-2.043-.252-3.07.058-.967.7-1.916.7-2.906,0-1.065.263-2.142.194-3.181s-.938-2.016-1.072-3.038c-.137-1.038-.357-2.021-.559-3.022-.21-1.046.461-2.29.183-3.289-.282-1.017-1.372-1.767-1.719-2.728-.353-.978-.49-2.012-.9-2.927-.437-.958-.528-2.09-1.028-2.97-.525-.923-1.108-1.832-1.7-2.662a26.906,26.906,0,0,0-2.1-2.252,22.827,22.827,0,0,0-2.355-1.949,21.489,21.489,0,0,0-2.2-2.148A18.956,18.956,0,0,0,33.42,8.1c-.955-.4-2.254.367-3.257.166C29.192,8.075,28.318,6.908,27.313,6.908Z" transform="translate(-5 -6.705)"/><path class="cls-3" d="M16.014,54.557a17.863,17.863,0,0,0,.451-2.764c0-.3-.2-1.81-.2-2.161,0-.153.1-1.106.1-1.306s-.152-1.259-.152-1.508c0-.5.05-1.307.05-1.808,0-.252.1-1.559.1-1.86a3.68,3.68,0,0,0-.052-.755,10.593,10.593,0,0,1-.151-2.009c0-.252.051-.553.051-.8.1-1.155.251-2.562.251-3.417,0-.3-.151-1.808-.151-2.16,0-.152.1-1.056.1-1.256,0-.252-.151-1.608-.151-1.91,0-.151.05-1.006.05-1.207a20.538,20.538,0,0,0-.4-2.914,5.255,5.255,0,0,1-.2-1.307,5.163,5.163,0,0,1,.452-2.612,2.091,2.091,0,0,1,2.212-1.156,13.727,13.727,0,0,1,1.458.05c.4.051.752.1,1.1.151a4.636,4.636,0,0,0,.8.05c.251,0,1.457-.1,1.708-.1s1.306.1,1.558.1c.4,0,2.462-.251,2.914-.251a7.469,7.469,0,0,1,1.056.05c.251.051.552.1.8.151a6.562,6.562,0,0,1,2.311.453,5.66,5.66,0,0,1,1.255.652c.252.151.453.253.7.4.2.15.453.3.653.451a9.258,9.258,0,0,0,.906.6,9.881,9.881,0,0,1,2.06,1.909c.251.351.4.7.6,1,.3.4.7.754.954,1.156a7.523,7.523,0,0,1,1.056,3.668v.8a6.083,6.083,0,0,0,.1.9c0,.1.051,1.508.051,1.658v.252a10.9,10.9,0,0,1-.4,1.609,11.689,11.689,0,0,1-.4,1.909c-.1.352-.854,1.81-1.005,2.111a5.219,5.219,0,0,1-1.407,2.161,8.692,8.692,0,0,1-.7.553,16.916,16.916,0,0,1-1.809,1.507,5.739,5.739,0,0,1-2.06,1.054c-.2.051-.854.253-.854.755,0,.3.2.451.8.905a4.1,4.1,0,0,1,.5.4,4.587,4.587,0,0,0,.654.753,15.415,15.415,0,0,0,2.01,1.359,8.276,8.276,0,0,0,3.116.4A1.69,1.69,0,0,1,40.586,52.9c0,.2-.252,1.307-.252,1.556,0,.152.051.906.051,1.1a2.723,2.723,0,0,1-.351,1.459,2.6,2.6,0,0,1-1.961.855c-.251,0-.5-.052-.7-.052h-.6c-.1,0-.6-.049-.7-.049h-.7a4.311,4.311,0,0,1-.756-.2c-.3-.1-.6-.1-.9-.2a15.716,15.716,0,0,1-1.608-.8c-.3-.152-1.759-1.459-2.463-2.062-.351-.3-2.161-1.757-2.512-2.161a9.376,9.376,0,0,0-.654-.8,3.28,3.28,0,0,1-.553-.6,7.909,7.909,0,0,0-.6-.7,2.024,2.024,0,0,0-1.609-.8c-.854,0-1,1.107-1,2.062A8.8,8.8,0,0,0,22.847,53c.1.5.3,1.055.4,1.607,0,.251.05.453.05.7,0,.8-.1,1.859-1.357,1.96H20.787c-.151,0-1-.05-1.156-.05-.653,0-1.256.1-1.91.1-1.707,0-1.707-1.256-1.707-1.91ZM34.053,34.1a4.665,4.665,0,0,1-.3-.754c-.05-.2-.05-.352-.1-.552-.05-.15-.1-.251-.15-.4a5.358,5.358,0,0,0-2.06-2.765c-.955-.754-.955-.8-1.709-1a1.792,1.792,0,0,1-.452-.2c-.1-.05-.251-.152-.352-.2a3.833,3.833,0,0,1-.754-.1c-.151,0-.252-.1-.4-.15s-.352-.051-.5-.1c-.1,0-.554-.15-.7-.15-.049,0-.552.1-.653.1-.15,0-.3-.05-.5-.05a7.932,7.932,0,0,0-1.306.4c-1.257.5-1.257,2.01-1.257,3.064,0,.252-.1,1.457-.1,1.758,0,.454.2,2.664.2,3.167,0,.551-.252,3.015-.252,3.567a9.919,9.919,0,0,0,.151,1.157c.05.3.05.6.1.9a1.268,1.268,0,0,0,.251.453A3.9,3.9,0,0,0,25.41,43a7.556,7.556,0,0,0,1.106-.1,2.492,2.492,0,0,0,1.307-.3,19.633,19.633,0,0,1,2.261-.854,2.237,2.237,0,0,0,1.457-1.306,6.9,6.9,0,0,1,.753-1.054,9.427,9.427,0,0,0,1.257-2.01,11.88,11.88,0,0,0,.553-2.765A1.865,1.865,0,0,0,34.053,34.1Z" transform="translate(-5 -6.705)"/></svg>